<svg width="88" height="88" viewBox="0 0 88 88" fill="none" xmlns="http://www.w3.org/2000/svg">
<path d="M43.9999 73.3334H73.3333V80.6667H43.9999C23.7489 80.6667 7.33325 64.251 7.33325 44C7.33325 23.749 23.7489 7.33337 43.9999 7.33337C64.2509 7.33337 80.6666 23.749 80.6666 44C80.6783 51.9355 78.1039 59.6587 73.3333 66H63.4039C68.5529 61.4591 71.946 55.256 72.9924 48.4709C74.0387 41.6859 72.6721 34.7487 69.1305 28.8675C65.5888 22.9863 60.0965 18.5337 53.61 16.2849C47.1234 14.0362 40.0536 14.1339 33.6317 16.5609C27.2098 18.9879 21.8425 23.5906 18.4647 29.5674C15.0868 35.5442 13.9123 42.5164 15.1457 49.27C16.3791 56.0235 19.9422 62.1305 25.2146 66.5275C30.487 70.9245 37.1347 73.3329 43.9999 73.3334ZM43.9999 36.6667C42.055 36.6667 40.1897 35.8941 38.8145 34.5188C37.4392 33.1436 36.6666 31.2783 36.6666 29.3334C36.6666 27.3885 37.4392 25.5232 38.8145 24.1479C40.1897 22.7727 42.055 22 43.9999 22C45.9448 22 47.8101 22.7727 49.1854 24.1479C50.5606 25.5232 51.3333 27.3885 51.3333 29.3334C51.3333 31.2783 50.5606 33.1436 49.1854 34.5188C47.8101 35.8941 45.9448 36.6667 43.9999 36.6667ZM29.3333 51.3334C27.3883 51.3334 25.5231 50.5608 24.1478 49.1855C22.7725 47.8102 21.9999 45.945 21.9999 44C21.9999 42.0551 22.7725 40.1899 24.1478 38.8146C25.5231 37.4393 27.3883 36.6667 29.3333 36.6667C31.2782 36.6667 33.1434 37.4393 34.5187 38.8146C35.894 40.1899 36.6666 42.0551 36.6666 44C36.6666 45.945 35.894 47.8102 34.5187 49.1855C33.1434 50.5608 31.2782 51.3334 29.3333 51.3334ZM58.6666 51.3334C56.7217 51.3334 54.8564 50.5608 53.4811 49.1855C52.1059 47.8102 51.3333 45.945 51.3333 44C51.3333 42.0551 52.1059 40.1899 53.4811 38.8146C54.8564 37.4393 56.7217 36.6667 58.6666 36.6667C60.6115 36.6667 62.4768 37.4393 63.852 38.8146C65.2273 40.1899 65.9999 42.0551 65.9999 44C65.9999 45.945 65.2273 47.8102 63.852 49.1855C62.4768 50.5608 60.6115 51.3334 58.6666 51.3334ZM43.9999 66C42.055 66 40.1897 65.2274 38.8145 63.8522C37.4392 62.4769 36.6666 60.6116 36.6666 58.6667C36.6666 56.7218 37.4392 54.8565 38.8145 53.4813C40.1897 52.106 42.055 51.3334 43.9999 51.3334C45.9448 51.3334 47.8101 52.106 49.1854 53.4813C50.5606 54.8565 51.3333 56.7218 51.3333 58.6667C51.3333 60.6116 50.5606 62.4769 49.1854 63.8522C47.8101 65.2274 45.9448 66 43.9999 66Z" fill="#B91C1C"/>
</svg>
